<?xml version="1.0" encoding="UTF-8" standalone="no"?>
<!-- Created with Inkscape (http://www.inkscape.org/) -->

<svg
   xmlns:dc="http://purl.org/dc/elements/1.1/"
   xmlns:cc="http://creativecommons.org/ns#"
   xmlns:rdf="http://www.w3.org/1999/02/22-rdf-syntax-ns#"
   xmlns:svg="http://www.w3.org/2000/svg"
   xmlns="http://www.w3.org/2000/svg"
   xmlns:sodipodi="http://sodipodi.sourceforge.net/DTD/sodipodi-0.dtd"
   xmlns:inkscape="http://www.inkscape.org/namespaces/inkscape"
   width="500.883"
   height="81.524628"
   id="svg2"
   version="1.1"
   inkscape:version="0.48.3.1 r9886"
   sodipodi:docname="New document 1">
  <defs
     id="defs4">
    <marker
       inkscape:stockid="Arrow1Mend"
       orient="auto"
       refY="0"
       refX="0"
       id="Arrow1Mend"
       style="overflow:visible">
      <path
         id="path3968"
         d="M 0,0 5,-5 -12.5,0 5,5 0,0 z"
         style="fill-rule:evenodd;stroke:#000000;stroke-width:1pt"
         transform="matrix(-0.4,0,0,-0.4,-4,0)"
         inkscape:connector-curvature="0" />
    </marker>
    <marker
       inkscape:stockid="Arrow1Lend"
       orient="auto"
       refY="0"
       refX="0"
       id="Arrow1Lend"
       style="overflow:visible">
      <path
         id="path3962"
         d="M 0,0 5,-5 -12.5,0 5,5 0,0 z"
         style="fill-rule:evenodd;stroke:#000000;stroke-width:1pt"
         transform="matrix(-0.8,0,0,-0.8,-10,0)"
         inkscape:connector-curvature="0" />
    </marker>
    <marker
       inkscape:stockid="Arrow1Mend"
       orient="auto"
       refY="0"
       refX="0"
       id="Arrow1Mend-5"
       style="overflow:visible">
      <path
         inkscape:connector-curvature="0"
         id="path3968-7"
         d="M 0,0 5,-5 -12.5,0 5,5 0,0 z"
         style="fill-rule:evenodd;stroke:#000000;stroke-width:1pt"
         transform="matrix(-0.4,0,0,-0.4,-4,0)" />
    </marker>
    <marker
       inkscape:stockid="Arrow1Mend"
       orient="auto"
       refY="0"
       refX="0"
       id="Arrow1Mend-7"
       style="overflow:visible">
      <path
         inkscape:connector-curvature="0"
         id="path3968-1"
         d="M 0,0 5,-5 -12.5,0 5,5 0,0 z"
         style="fill-rule:evenodd;stroke:#000000;stroke-width:1pt"
         transform="matrix(-0.4,0,0,-0.4,-4,0)" />
    </marker>
    <marker
       inkscape:stockid="Arrow1Mend"
       orient="auto"
       refY="0"
       refX="0"
       id="Arrow1Mend-52"
       style="overflow:visible">
      <path
         inkscape:connector-curvature="0"
         id="path3968-9"
         d="M 0,0 5,-5 -12.5,0 5,5 0,0 z"
         style="fill-rule:evenodd;stroke:#000000;stroke-width:1pt"
         transform="matrix(-0.4,0,0,-0.4,-4,0)" />
    </marker>
    <marker
       inkscape:stockid="Arrow1Mend"
       orient="auto"
       refY="0"
       refX="0"
       id="marker4637"
       style="overflow:visible">
      <path
         inkscape:connector-curvature="0"
         id="path4639"
         d="M 0,0 5,-5 -12.5,0 5,5 0,0 z"
         style="fill-rule:evenodd;stroke:#000000;stroke-width:1pt"
         transform="matrix(-0.4,0,0,-0.4,-4,0)" />
    </marker>
    <marker
       inkscape:stockid="Arrow1Mend"
       orient="auto"
       refY="0"
       refX="0"
       id="marker4641"
       style="overflow:visible">
      <path
         inkscape:connector-curvature="0"
         id="path4643"
         d="M 0,0 5,-5 -12.5,0 5,5 0,0 z"
         style="fill-rule:evenodd;stroke:#000000;stroke-width:1pt"
         transform="matrix(-0.4,0,0,-0.4,-4,0)" />
    </marker>
    <marker
       inkscape:stockid="Arrow1Mend"
       orient="auto"
       refY="0"
       refX="0"
       id="Arrow1Mend-54"
       style="overflow:visible">
      <path
         inkscape:connector-curvature="0"
         id="path3968-2"
         d="M 0,0 5,-5 -12.5,0 5,5 0,0 z"
         style="fill-rule:evenodd;stroke:#000000;stroke-width:1pt"
         transform="matrix(-0.4,0,0,-0.4,-4,0)" />
    </marker>
    <marker
       inkscape:stockid="Arrow1Mend"
       orient="auto"
       refY="0"
       refX="0"
       id="marker4692"
       style="overflow:visible">
      <path
         inkscape:connector-curvature="0"
         id="path4694"
         d="M 0,0 5,-5 -12.5,0 5,5 0,0 z"
         style="fill-rule:evenodd;stroke:#000000;stroke-width:1pt"
         transform="matrix(-0.4,0,0,-0.4,-4,0)" />
    </marker>
    <marker
       inkscape:stockid="Arrow1Mend"
       orient="auto"
       refY="0"
       refX="0"
       id="marker4696"
       style="overflow:visible">
      <path
         inkscape:connector-curvature="0"
         id="path4698"
         d="M 0,0 5,-5 -12.5,0 5,5 0,0 z"
         style="fill-rule:evenodd;stroke:#000000;stroke-width:1pt"
         transform="matrix(-0.4,0,0,-0.4,-4,0)" />
    </marker>
    <marker
       inkscape:stockid="Arrow1Mend"
       orient="auto"
       refY="0"
       refX="0"
       id="marker4700"
       style="overflow:visible">
      <path
         inkscape:connector-curvature="0"
         id="path4702"
         d="M 0,0 5,-5 -12.5,0 5,5 0,0 z"
         style="fill-rule:evenodd;stroke:#000000;stroke-width:1pt"
         transform="matrix(-0.4,0,0,-0.4,-4,0)" />
    </marker>
    <marker
       inkscape:stockid="Arrow1Mend"
       orient="auto"
       refY="0"
       refX="0"
       id="marker4704"
       style="overflow:visible">
      <path
         inkscape:connector-curvature="0"
         id="path4706"
         d="M 0,0 5,-5 -12.5,0 5,5 0,0 z"
         style="fill-rule:evenodd;stroke:#000000;stroke-width:1pt"
         transform="matrix(-0.4,0,0,-0.4,-4,0)" />
    </marker>
    <marker
       inkscape:stockid="Arrow1Mend"
       orient="auto"
       refY="0"
       refX="0"
       id="marker4708"
       style="overflow:visible">
      <path
         inkscape:connector-curvature="0"
         id="path4710"
         d="M 0,0 5,-5 -12.5,0 5,5 0,0 z"
         style="fill-rule:evenodd;stroke:#000000;stroke-width:1pt"
         transform="matrix(-0.4,0,0,-0.4,-4,0)" />
    </marker>
    <marker
       inkscape:stockid="Arrow1Mend"
       orient="auto"
       refY="0"
       refX="0"
       id="Arrow1Mend-74"
       style="overflow:visible">
      <path
         inkscape:connector-curvature="0"
         id="path3968-12"
         d="M 0,0 5,-5 -12.5,0 5,5 0,0 z"
         style="fill-rule:evenodd;stroke:#000000;stroke-width:1pt"
         transform="matrix(-0.4,0,0,-0.4,-4,0)" />
    </marker>
    <marker
       inkscape:stockid="Arrow1Mend"
       orient="auto"
       refY="0"
       refX="0"
       id="marker4789"
       style="overflow:visible">
      <path
         inkscape:connector-curvature="0"
         id="path4791"
         d="M 0,0 5,-5 -12.5,0 5,5 0,0 z"
         style="fill-rule:evenodd;stroke:#000000;stroke-width:1pt"
         transform="matrix(-0.4,0,0,-0.4,-4,0)" />
    </marker>
    <marker
       inkscape:stockid="Arrow1Mend"
       orient="auto"
       refY="0"
       refX="0"
       id="Arrow1Mend-3"
       style="overflow:visible">
      <path
         inkscape:connector-curvature="0"
         id="path3968-8"
         d="M 0,0 5,-5 -12.5,0 5,5 0,0 z"
         style="fill-rule:evenodd;stroke:#000000;stroke-width:1pt"
         transform="matrix(-0.4,0,0,-0.4,-4,0)" />
    </marker>
    <marker
       inkscape:stockid="Arrow1Mend"
       orient="auto"
       refY="0"
       refX="0"
       id="marker4833"
       style="overflow:visible">
      <path
         inkscape:connector-curvature="0"
         id="path4835"
         d="M 0,0 5,-5 -12.5,0 5,5 0,0 z"
         style="fill-rule:evenodd;stroke:#000000;stroke-width:1pt"
         transform="matrix(-0.4,0,0,-0.4,-4,0)" />
    </marker>
    <marker
       inkscape:stockid="Arrow1Mend"
       orient="auto"
       refY="0"
       refX="0"
       id="Arrow1Mend-0"
       style="overflow:visible">
      <path
         inkscape:connector-curvature="0"
         id="path3968-5"
         d="M 0,0 5,-5 -12.5,0 5,5 0,0 z"
         style="fill-rule:evenodd;stroke:#000000;stroke-width:1pt"
         transform="matrix(-0.4,0,0,-0.4,-4,0)" />
    </marker>
    <marker
       inkscape:stockid="Arrow1Mend"
       orient="auto"
       refY="0"
       refX="0"
       id="Arrow1Mend-51"
       style="overflow:visible">
      <path
         inkscape:connector-curvature="0"
         id="path3968-125"
         d="M 0,0 5,-5 -12.5,0 5,5 0,0 z"
         style="fill-rule:evenodd;stroke:#000000;stroke-width:1pt"
         transform="matrix(-0.4,0,0,-0.4,-4,0)" />
    </marker>
  </defs>
  <sodipodi:namedview
     id="base"
     pagecolor="#ffffff"
     bordercolor="#666666"
     borderopacity="1.0"
     inkscape:pageopacity="0.0"
     inkscape:pageshadow="2"
     inkscape:zoom="1.2197607"
     inkscape:cx="240.84905"
     inkscape:cy="57.968997"
     inkscape:document-units="px"
     inkscape:current-layer="layer1"
     showgrid="false"
     fit-margin-top="0"
     fit-margin-left="0"
     fit-margin-right="0"
     fit-margin-bottom="0"
     inkscape:window-width="1920"
     inkscape:window-height="1025"
     inkscape:window-x="-2"
     inkscape:window-y="-3"
     inkscape:window-maximized="1" />
  <metadata
     id="metadata7">
    <rdf:RDF>
      <cc:Work
         rdf:about="">
        <dc:format>image/svg+xml</dc:format>
        <dc:type
           rdf:resource="http://purl.org/dc/dcmitype/StillImage" />
        <dc:title></dc:title>
      </cc:Work>
    </rdf:RDF>
  </metadata>
  <g
     inkscape:label="Layer 1"
     inkscape:groupmode="layer"
     id="layer1"
     transform="translate(5.0492122e-8,-1000.8376)">
    <path
       style="fill:none;stroke:#000000;stroke-width:1px;stroke-linecap:butt;stroke-linejoin:miter;stroke-opacity:1;marker-start:none;marker-end:url(#Arrow1Mend)"
       d="m 210.48882,1041.2944 31.23003,25.8248"
       id="path3773-1-50"
       inkscape:connector-curvature="0"
       sodipodi:nodetypes="cc" />
    <path
       style="fill:none;stroke:#000000;stroke-width:1px;stroke-linecap:butt;stroke-linejoin:miter;stroke-opacity:1;marker-start:none;marker-end:url(#Arrow1Mend)"
       d="m 51.031325,1041.7044 30.410199,-24.595"
       id="path3773-1-1"
       inkscape:connector-curvature="0"
       sodipodi:nodetypes="cc" />
    <path
       style="fill:none;stroke:#000000;stroke-width:1px;stroke-linecap:butt;stroke-linejoin:miter;stroke-opacity:1;marker-start:none;marker-end:url(#Arrow1Mend)"
       d="m 450.072,1041.3622 30.00029,0"
       id="path3773-9-0-7"
       inkscape:connector-curvature="0"
       sodipodi:nodetypes="cc" />
    <path
       sodipodi:type="arc"
       style="fill:#ffffff;fill-opacity:1;stroke:#000000;stroke-width:8.41428566;stroke-miterlimit:4;stroke-opacity:1;stroke-dasharray:none"
       id="path2985-1-4-3-6"
       sodipodi:cx="178.92857"
       sodipodi:cy="396.29074"
       sodipodi:rx="41.07143"
       sodipodi:ry="41.07143"
       d="m 220,396.29074 c 0,22.68313 -18.3883,41.07143 -41.07143,41.07143 -22.68312,0 -41.07143,-18.3883 -41.07143,-41.07143 0,-22.68312 18.38831,-41.07143 41.07143,-41.07143 22.68313,0 41.07143,18.38831 41.07143,41.07143 z"
       transform="matrix(0.23769543,0,0,0.23769077,447.59,947.4052)" />
    <path
       style="fill:none;stroke:#000000;stroke-width:1px;stroke-linecap:butt;stroke-linejoin:miter;stroke-opacity:1;marker-start:none;marker-end:url(#Arrow1Mend)"
       d="m 410.072,1041.3622 30.00029,0"
       id="path3773-1-5-7"
       inkscape:connector-curvature="0"
       sodipodi:nodetypes="cc" />
    <path
       sodipodi:type="arc"
       style="fill:#ffffff;fill-opacity:1;stroke:#000000;stroke-width:8.41428566;stroke-miterlimit:4;stroke-opacity:1;stroke-dasharray:none"
       id="path2985-1-7-2-4"
       sodipodi:cx="178.92857"
       sodipodi:cy="396.29074"
       sodipodi:rx="41.07143"
       sodipodi:ry="41.07143"
       d="m 220,396.29074 c 0,22.68313 -18.3883,41.07143 -41.07143,41.07143 -22.68312,0 -41.07143,-18.3883 -41.07143,-41.07143 0,-22.68312 18.38831,-41.07143 41.07143,-41.07143 22.68313,0 41.07143,18.38831 41.07143,41.07143 z"
       transform="matrix(0.23769546,0,0,0.23769077,407.58999,947.4052)" />
    <path
       style="fill:none;stroke:#000000;stroke-width:1px;stroke-linecap:butt;stroke-linejoin:miter;stroke-opacity:1;marker-start:none;marker-end:url(#Arrow1Mend)"
       d="m 370.286,1041.3622 30.00029,0"
       id="path3773-5-5"
       inkscape:connector-curvature="0"
       sodipodi:nodetypes="cc" />
    <path
       sodipodi:type="arc"
       style="fill:#ffffff;fill-opacity:1;stroke:#000000;stroke-width:8.41428566;stroke-miterlimit:4;stroke-opacity:1;stroke-dasharray:none"
       id="path2985-1-0-4"
       sodipodi:cx="178.92857"
       sodipodi:cy="396.29074"
       sodipodi:rx="41.07143"
       sodipodi:ry="41.07143"
       d="m 220,396.29074 c 0,22.68313 -18.3883,41.07143 -41.07143,41.07143 -22.68312,0 -41.07143,-18.3883 -41.07143,-41.07143 0,-22.68312 18.38831,-41.07143 41.07143,-41.07143 22.68313,0 41.07143,18.38831 41.07143,41.07143 z"
       transform="matrix(0.23769543,0,0,0.23769077,367.804,947.40521)" />
    <path
       style="fill:none;stroke:#000000;stroke-width:1px;stroke-linecap:butt;stroke-linejoin:miter;stroke-opacity:1;marker-start:none;marker-end:url(#Arrow1Mend)"
       d="m 330.286,1041.3622 30.00029,0"
       id="path3773-9-00"
       inkscape:connector-curvature="0"
       sodipodi:nodetypes="cc" />
    <path
       sodipodi:type="arc"
       style="fill:#ffffff;fill-opacity:1;stroke:#000000;stroke-width:8.41428566;stroke-miterlimit:4;stroke-opacity:1;stroke-dasharray:none"
       id="path2985-1-4-33"
       sodipodi:cx="178.92857"
       sodipodi:cy="396.29074"
       sodipodi:rx="41.07143"
       sodipodi:ry="41.07143"
       d="m 220,396.29074 c 0,22.68313 -18.3883,41.07143 -41.07143,41.07143 -22.68312,0 -41.07143,-18.3883 -41.07143,-41.07143 0,-22.68312 18.38831,-41.07143 41.07143,-41.07143 22.68313,0 41.07143,18.38831 41.07143,41.07143 z"
       transform="matrix(0.23769543,0,0,0.23769077,327.804,947.40521)" />
    <path
       style="fill:none;stroke:#000000;stroke-width:1px;stroke-linecap:butt;stroke-linejoin:miter;stroke-opacity:1;marker-start:none;marker-end:url(#Arrow1Mend)"
       d="m 290.286,1041.3622 30.00028,0"
       id="path3773-1-9"
       inkscape:connector-curvature="0"
       sodipodi:nodetypes="cc" />
    <path
       sodipodi:type="arc"
       style="fill:#ffffff;fill-opacity:1;stroke:#000000;stroke-width:8.41428566;stroke-miterlimit:4;stroke-opacity:1;stroke-dasharray:none"
       id="path2985-1-7-0"
       sodipodi:cx="178.92857"
       sodipodi:cy="396.29074"
       sodipodi:rx="41.07143"
       sodipodi:ry="41.07143"
       d="m 220,396.29074 c 0,22.68313 -18.3883,41.07143 -41.07143,41.07143 -22.68312,0 -41.07143,-18.3883 -41.07143,-41.07143 0,-22.68312 18.38831,-41.07143 41.07143,-41.07143 22.68313,0 41.07143,18.38831 41.07143,41.07143 z"
       transform="matrix(0.23769546,0,0,0.23769077,287.80399,947.40521)" />
    <path
       style="fill:none;stroke:#000000;stroke-width:1px;stroke-linecap:butt;stroke-linejoin:miter;stroke-opacity:1;marker-start:none;marker-end:url(#Arrow1Mend)"
       d="m 250.5,1041.3622 30.00029,0"
       id="path3773-14"
       inkscape:connector-curvature="0"
       sodipodi:nodetypes="cc" />
    <path
       sodipodi:type="arc"
       style="fill:#ffffff;fill-opacity:1;stroke:#000000;stroke-width:8.41428566;stroke-miterlimit:4;stroke-opacity:1;stroke-dasharray:none"
       id="path2985-1-9"
       sodipodi:cx="178.92857"
       sodipodi:cy="396.29074"
       sodipodi:rx="41.07143"
       sodipodi:ry="41.07143"
       d="m 220,396.29074 c 0,22.68313 -18.3883,41.07143 -41.07143,41.07143 -22.68312,0 -41.07143,-18.3883 -41.07143,-41.07143 0,-22.68312 18.38831,-41.07143 41.07143,-41.07143 22.68313,0 41.07143,18.38831 41.07143,41.07143 z"
       transform="matrix(0.23769543,0,0,0.23769077,248.018,947.40522)" />
    <path
       style="fill:none;stroke:#000000;stroke-width:1px;stroke-linecap:butt;stroke-linejoin:miter;stroke-opacity:1;marker-start:none;marker-end:url(#Arrow1Mend)"
       d="m 210.286,1041.3622 30.00029,0"
       id="path3773-9-0"
       inkscape:connector-curvature="0"
       sodipodi:nodetypes="cc" />
    <path
       sodipodi:type="arc"
       style="fill:#ffffff;fill-opacity:1;stroke:#000000;stroke-width:8.41428566;stroke-miterlimit:4;stroke-opacity:1;stroke-dasharray:none"
       id="path2985-1-4-3"
       sodipodi:cx="178.92857"
       sodipodi:cy="396.29074"
       sodipodi:rx="41.07143"
       sodipodi:ry="41.07143"
       d="m 220,396.29074 c 0,22.68313 -18.3883,41.07143 -41.07143,41.07143 -22.68312,0 -41.07143,-18.3883 -41.07143,-41.07143 0,-22.68312 18.38831,-41.07143 41.07143,-41.07143 22.68313,0 41.07143,18.38831 41.07143,41.07143 z"
       transform="matrix(0.23769543,0,0,0.23769077,207.804,947.40521)" />
    <path
       style="fill:none;stroke:#000000;stroke-width:1px;stroke-linecap:butt;stroke-linejoin:miter;stroke-opacity:1;marker-start:none;marker-end:url(#Arrow1Mend)"
       d="m 170.286,1041.3622 30.00029,0"
       id="path3773-1-5"
       inkscape:connector-curvature="0"
       sodipodi:nodetypes="cc" />
    <path
       sodipodi:type="arc"
       style="fill:#ffffff;fill-opacity:1;stroke:#000000;stroke-width:8.41428566;stroke-miterlimit:4;stroke-opacity:1;stroke-dasharray:none"
       id="path2985-1-7-2"
       sodipodi:cx="178.92857"
       sodipodi:cy="396.29074"
       sodipodi:rx="41.07143"
       sodipodi:ry="41.07143"
       d="m 220,396.29074 c 0,22.68313 -18.3883,41.07143 -41.07143,41.07143 -22.68312,0 -41.07143,-18.3883 -41.07143,-41.07143 0,-22.68312 18.38831,-41.07143 41.07143,-41.07143 22.68313,0 41.07143,18.38831 41.07143,41.07143 z"
       transform="matrix(0.23769546,0,0,0.23769077,167.80399,947.40521)" />
    <path
       style="fill:none;stroke:#000000;stroke-width:1px;stroke-linecap:butt;stroke-linejoin:miter;stroke-opacity:1;marker-start:none;marker-end:url(#Arrow1Mend)"
       d="m 130.5,1041.3622 30.00029,0"
       id="path3773-5"
       inkscape:connector-curvature="0"
       sodipodi:nodetypes="cc" />
    <path
       sodipodi:type="arc"
       style="fill:#ffffff;fill-opacity:1;stroke:#000000;stroke-width:8.41428566;stroke-miterlimit:4;stroke-opacity:1;stroke-dasharray:none"
       id="path2985-1-0"
       sodipodi:cx="178.92857"
       sodipodi:cy="396.29074"
       sodipodi:rx="41.07143"
       sodipodi:ry="41.07143"
       d="m 220,396.29074 c 0,22.68313 -18.3883,41.07143 -41.07143,41.07143 -22.68312,0 -41.07143,-18.3883 -41.07143,-41.07143 0,-22.68312 18.38831,-41.07143 41.07143,-41.07143 22.68313,0 41.07143,18.38831 41.07143,41.07143 z"
       transform="matrix(0.23769543,0,0,0.23769077,128.018,947.40522)" />
    <path
       style="fill:none;stroke:#000000;stroke-width:1px;stroke-linecap:butt;stroke-linejoin:miter;stroke-opacity:1;marker-start:none;marker-end:url(#Arrow1Mend)"
       d="m 90.5,1041.3622 30.00029,0"
       id="path3773-9"
       inkscape:connector-curvature="0"
       sodipodi:nodetypes="cc" />
    <path
       sodipodi:type="arc"
       style="fill:#ffffff;fill-opacity:1;stroke:#000000;stroke-width:8.41428566;stroke-miterlimit:4;stroke-opacity:1;stroke-dasharray:none"
       id="path2985-1-4"
       sodipodi:cx="178.92857"
       sodipodi:cy="396.29074"
       sodipodi:rx="41.07143"
       sodipodi:ry="41.07143"
       d="m 220,396.29074 c 0,22.68313 -18.3883,41.07143 -41.07143,41.07143 -22.68312,0 -41.07143,-18.3883 -41.07143,-41.07143 0,-22.68312 18.38831,-41.07143 41.07143,-41.07143 22.68313,0 41.07143,18.38831 41.07143,41.07143 z"
       transform="matrix(0.23769543,0,0,0.23769077,88.018,947.40522)" />
    <path
       style="fill:none;stroke:#000000;stroke-width:1px;stroke-linecap:butt;stroke-linejoin:miter;stroke-opacity:1;marker-start:none;marker-end:url(#Arrow1Mend)"
       d="m 50.5,1041.3622 30.000283,0"
       id="path3773-1"
       inkscape:connector-curvature="0"
       sodipodi:nodetypes="cc" />
    <path
       sodipodi:type="arc"
       style="fill:#ffffff;fill-opacity:1;stroke:#000000;stroke-width:8.41428566;stroke-miterlimit:4;stroke-opacity:1;stroke-dasharray:none"
       id="path2985-1-7"
       sodipodi:cx="178.92857"
       sodipodi:cy="396.29074"
       sodipodi:rx="41.07143"
       sodipodi:ry="41.07143"
       d="m 220,396.29074 c 0,22.68313 -18.3883,41.07143 -41.07143,41.07143 -22.68312,0 -41.07143,-18.3883 -41.07143,-41.07143 0,-22.68312 18.38831,-41.07143 41.07143,-41.07143 22.68313,0 41.07143,18.38831 41.07143,41.07143 z"
       transform="matrix(0.23769546,0,0,0.23769077,48.01799,947.40522)" />
    <path
       style="fill:none;stroke:#000000;stroke-width:1px;stroke-linecap:butt;stroke-linejoin:miter;stroke-opacity:1;marker-start:none;marker-end:url(#Arrow1Mend)"
       d="m 10.714,1041.3622 30.000286,0"
       id="path3773"
       inkscape:connector-curvature="0"
       sodipodi:nodetypes="cc" />
    <path
       sodipodi:type="arc"
       style="fill:#ffffff;fill-opacity:1;stroke:#000000;stroke-width:8.41428566;stroke-miterlimit:4;stroke-opacity:1;stroke-dasharray:none"
       id="path2985"
       sodipodi:cx="178.92857"
       sodipodi:cy="396.29074"
       sodipodi:rx="41.07143"
       sodipodi:ry="41.07143"
       d="m 220,396.29074 c 0,22.68313 -18.3883,41.07143 -41.07143,41.07143 -22.68312,0 -41.07143,-18.3883 -41.07143,-41.07143 0,-22.68312 18.38831,-41.07143 41.07143,-41.07143 22.68313,0 41.07143,18.38831 41.07143,41.07143 z"
       transform="matrix(0.23769099,0,0,0.23769099,-31.767401,947.40514)" />
    <path
       sodipodi:type="arc"
       style="fill:#ffffff;fill-opacity:1;stroke:#000000;stroke-width:8.41428566;stroke-miterlimit:4;stroke-opacity:1;stroke-dasharray:none"
       id="path2985-1"
       sodipodi:cx="178.92857"
       sodipodi:cy="396.29074"
       sodipodi:rx="41.07143"
       sodipodi:ry="41.07143"
       d="m 220,396.29074 c 0,22.68313 -18.3883,41.07143 -41.07143,41.07143 -22.68312,0 -41.07143,-18.3883 -41.07143,-41.07143 0,-22.68312 18.38831,-41.07143 41.07143,-41.07143 22.68313,0 41.07143,18.38831 41.07143,41.07143 z"
       transform="matrix(0.23769543,0,0,0.23769077,8.2319961,947.40523)" />
    <path
       style="fill:none;stroke:#000000;stroke-width:1px;stroke-linecap:butt;stroke-linejoin:miter;stroke-opacity:1;marker-start:none;marker-end:url(#Arrow1Mend)"
       d="m 130.928,1011.3622 30.00029,0"
       id="path3773-14-3"
       inkscape:connector-curvature="0"
       sodipodi:nodetypes="cc" />
    <path
       sodipodi:type="arc"
       style="fill:#000000;fill-opacity:1;stroke:#000000;stroke-width:8.41428566;stroke-miterlimit:4;stroke-opacity:1;stroke-dasharray:none"
       id="path2985-1-9-1"
       sodipodi:cx="178.92857"
       sodipodi:cy="396.29074"
       sodipodi:rx="41.07143"
       sodipodi:ry="41.07143"
       d="m 220,396.29074 c 0,22.68313 -18.3883,41.07143 -41.07143,41.07143 -22.68312,0 -41.07143,-18.3883 -41.07143,-41.07143 0,-22.68312 18.38831,-41.07143 41.07143,-41.07143 22.68313,0 41.07143,18.38831 41.07143,41.07143 z"
       transform="matrix(0.23769542,0,0,0.23769077,128.446,917.40522)" />
    <path
       style="fill:none;stroke:#000000;stroke-width:1px;stroke-linecap:butt;stroke-linejoin:miter;stroke-opacity:1;marker-start:none;marker-end:url(#Arrow1Mend)"
       d="m 90.713999,1011.3622 30.000291,0"
       id="path3773-9-0-4"
       inkscape:connector-curvature="0"
       sodipodi:nodetypes="cc" />
    <path
       sodipodi:type="arc"
       style="fill:#000000;fill-opacity:1;stroke:#000000;stroke-width:8.41428566;stroke-miterlimit:4;stroke-opacity:1;stroke-dasharray:none"
       id="path2985-1-4-3-0"
       sodipodi:cx="178.92857"
       sodipodi:cy="396.29074"
       sodipodi:rx="41.07143"
       sodipodi:ry="41.07143"
       d="m 220,396.29074 c 0,22.68313 -18.3883,41.07143 -41.07143,41.07143 -22.68312,0 -41.07143,-18.3883 -41.07143,-41.07143 0,-22.68312 18.38831,-41.07143 41.07143,-41.07143 22.68313,0 41.07143,18.38831 41.07143,41.07143 z"
       transform="matrix(0.23769542,0,0,0.23769077,88.232004,917.40521)" />
    <path
       sodipodi:type="arc"
       style="fill:#000000;fill-opacity:1;stroke:#000000;stroke-width:8.41428566;stroke-miterlimit:4;stroke-opacity:1;stroke-dasharray:none"
       id="path2985-1-7-2-0"
       sodipodi:cx="178.92857"
       sodipodi:cy="396.29074"
       sodipodi:rx="41.07143"
       sodipodi:ry="41.07143"
       d="m 220,396.29074 c 0,22.68313 -18.3883,41.07143 -41.07143,41.07143 -22.68312,0 -41.07143,-18.3883 -41.07143,-41.07143 0,-22.68312 18.38831,-41.07143 41.07143,-41.07143 22.68313,0 41.07143,18.38831 41.07143,41.07143 z"
       transform="matrix(0.23769545,0,0,0.23769077,48.231993,917.40521)" />
    <path
       style="fill:none;stroke:#000000;stroke-width:1px;stroke-linecap:butt;stroke-linejoin:miter;stroke-opacity:1;marker-start:none;marker-end:url(#Arrow1Mend)"
       d="m 290.92799,1071.3622 30.00029,0"
       id="path3773-14-3-6"
       inkscape:connector-curvature="0"
       sodipodi:nodetypes="cc" />
    <path
       sodipodi:type="arc"
       style="fill:#000000;fill-opacity:1;stroke:#000000;stroke-width:8.41428566;stroke-miterlimit:4;stroke-opacity:1;stroke-dasharray:none"
       id="path2985-1-9-1-0"
       sodipodi:cx="178.92857"
       sodipodi:cy="396.29074"
       sodipodi:rx="41.07143"
       sodipodi:ry="41.07143"
       d="m 220,396.29074 c 0,22.68313 -18.3883,41.07143 -41.07143,41.07143 -22.68312,0 -41.07143,-18.3883 -41.07143,-41.07143 0,-22.68312 18.38831,-41.07143 41.07143,-41.07143 22.68313,0 41.07143,18.38831 41.07143,41.07143 z"
       transform="matrix(0.23769542,0,0,0.23769077,288.44599,977.40522)" />
    <path
       style="fill:none;stroke:#000000;stroke-width:1px;stroke-linecap:butt;stroke-linejoin:miter;stroke-opacity:1;marker-start:none;marker-end:url(#Arrow1Mend)"
       d="m 250.71399,1071.3622 30.00029,0"
       id="path3773-9-0-4-3"
       inkscape:connector-curvature="0"
       sodipodi:nodetypes="cc" />
    <path
       sodipodi:type="arc"
       style="fill:#000000;fill-opacity:1;stroke:#000000;stroke-width:8.41428566;stroke-miterlimit:4;stroke-opacity:1;stroke-dasharray:none"
       id="path2985-1-4-3-0-7"
       sodipodi:cx="178.92857"
       sodipodi:cy="396.29074"
       sodipodi:rx="41.07143"
       sodipodi:ry="41.07143"
       d="m 220,396.29074 c 0,22.68313 -18.3883,41.07143 -41.07143,41.07143 -22.68312,0 -41.07143,-18.3883 -41.07143,-41.07143 0,-22.68312 18.38831,-41.07143 41.07143,-41.07143 22.68313,0 41.07143,18.38831 41.07143,41.07143 z"
       transform="matrix(0.23769542,0,0,0.23769077,248.232,977.40521)" />
    <path
       sodipodi:type="arc"
       style="fill:#000000;fill-opacity:1;stroke:#000000;stroke-width:8.41428566;stroke-miterlimit:4;stroke-opacity:1;stroke-dasharray:none"
       id="path2985-1-7-2-0-2"
       sodipodi:cx="178.92857"
       sodipodi:cy="396.29074"
       sodipodi:rx="41.07143"
       sodipodi:ry="41.07143"
       d="m 220,396.29074 c 0,22.68313 -18.3883,41.07143 -41.07143,41.07143 -22.68312,0 -41.07143,-18.3883 -41.07143,-41.07143 0,-22.68312 18.38831,-41.07143 41.07143,-41.07143 22.68313,0 41.07143,18.38831 41.07143,41.07143 z"
       transform="matrix(0.23769545,0,0,0.23769077,208.23199,977.40521)" />
  </g>
</svg>
